<?xml version="1.0" encoding="utf-8"?>
<!-- Generator: Adobe Illustrator 14.0.0, SVG Export Plug-In . SVG Version: 6.00 Build 43363)  -->
<!DOCTYPE svg PUBLIC "-//W3C//DTD SVG 1.1//EN" "http://www.w3.org/Graphics/SVG/1.1/DTD/svg11.dtd">
<svg version="1.1" id="Warstwa_1" xmlns="http://www.w3.org/2000/svg" xmlns:xlink="http://www.w3.org/1999/xlink" x="0px" y="0px"
	 width="194.566px" height="98.898px" viewBox="0 0 194.566 98.898" enable-background="new 0 0 194.566 98.898"
	 xml:space="preserve">
<g>
	<g>
		<path id="SVGID_3_" fill="#FFFFFF" d="M12.568,47.666h3.047c1.268,0,2.13,0.193,2.59,0.582c0.459,0.39,0.688,0.944,0.688,1.668
			c0,0.491-0.146,0.926-0.437,1.304c-0.292,0.378-0.667,0.611-1.127,0.704c-0.909,0.203-1.521,0.307-1.837,0.307h-2.926
			L12.568,47.666L12.568,47.666z M5.598,43.133v22.453h6.97v-9.111h0.612c0.634,0,1.198,0.174,1.698,0.521
			c0.368,0.266,0.787,0.842,1.256,1.73l3.71,6.859h7.841l-3.36-6.507c-0.163-0.325-0.487-0.792-0.972-1.396
			c-0.485-0.604-0.854-0.995-1.109-1.182c-0.378-0.274-0.979-0.551-1.807-0.826c1.03-0.234,1.845-0.531,2.437-0.89
			c0.931-0.562,1.66-1.294,2.192-2.197c0.529-0.902,0.797-1.979,0.797-3.225c0-1.431-0.349-2.644-1.042-3.639
			c-0.695-0.995-1.608-1.678-2.742-2.045c-1.133-0.366-2.771-0.551-4.916-0.551L5.598,43.133L5.598,43.133z"/>
	</g>
</g>
<g>
	<g>
		<path id="SVGID_5_" fill="#FFFFFF" d="M46.333,43.133v13.695c0,1.245-0.339,2.207-1.018,2.887
			c-0.682,0.679-1.615,1.019-2.813,1.019c-1.205,0-2.146-0.346-2.824-1.032c-0.681-0.688-1.02-1.646-1.02-2.871V43.133h-6.923V56.51
			c0,1.102,0.215,2.366,0.643,3.797c0.269,0.887,0.759,1.75,1.479,2.587c0.719,0.837,1.515,1.479,2.382,1.937
			c0.868,0.453,1.947,0.757,3.24,0.911c1.291,0.151,2.481,0.229,3.574,0.229c1.89,0,3.509-0.25,4.856-0.75
			c0.969-0.356,1.896-0.978,2.778-1.858s1.532-1.914,1.945-3.094c0.413-1.178,0.619-2.431,0.619-3.757V43.133H46.333z"/>
	</g>
</g>
<g>
	<g>
		<path id="SVGID_7_" fill="#FFFFFF" d="M63.858,43.631c-1.345,0.587-2.351,1.394-3.02,2.419c-0.668,1.027-1.002,2.117-1.002,3.271
			c0,1.757,0.653,3.201,1.96,4.333c1.296,1.135,3.467,2.042,6.51,2.729c1.858,0.407,3.043,0.844,3.554,1.303
			s0.766,0.979,0.766,1.563c0,0.612-0.268,1.151-0.803,1.615c-0.536,0.467-1.3,0.697-2.291,0.697c-1.328,0-2.348-0.455-3.063-1.363
			c-0.438-0.562-0.729-1.379-0.872-2.449l-6.603,0.413c0.195,2.269,1.027,4.135,2.497,5.604c1.471,1.471,4.115,2.206,7.933,2.206
			c2.179,0,3.979-0.313,5.408-0.942c1.43-0.628,2.542-1.549,3.339-2.765c0.796-1.216,1.194-2.542,1.194-3.983
			c0-1.224-0.299-2.331-0.896-3.321s-1.552-1.818-2.863-2.487c-1.313-0.67-3.484-1.33-6.518-1.984
			c-1.226-0.255-2.002-0.529-2.328-0.826c-0.338-0.286-0.506-0.605-0.506-0.966c0-0.489,0.204-0.905,0.613-1.248
			c0.407-0.342,1.016-0.513,1.822-0.513c0.979,0,1.749,0.229,2.305,0.688c0.557,0.459,0.922,1.194,1.096,2.206l6.54-0.385
			c-0.287-2.327-1.183-4.024-2.688-5.092c-1.505-1.068-3.693-1.602-6.563-1.602C67.041,42.749,65.201,43.044,63.858,43.631"/>
	</g>
</g>
<g>
	<g>
		<rect id="SVGID_9_" x="85.486" y="43.133" fill="#FFFFFF" width="6.954" height="22.453"/>
	</g>
</g>
<g>
	<g>
		<path id="SVGID_11_" fill="#FFFFFF" d="M114.75,43.133v12.423l-8.455-12.423h-6.478v22.453h6.521V53.258l8.408,12.327h6.541
			V43.133H114.75z M110.354,37.067l-2.575,4.58h2.988l4.944-4.58H110.354z"/>
	</g>
</g>
<g>
	<g>
		<path id="SVGID_13_" fill="#FFFFFF" d="M131.905,43.631c-1.344,0.587-2.35,1.394-3.018,2.419c-0.67,1.027-1.004,2.117-1.004,3.271
			c0,1.757,0.652,3.201,1.959,4.333c1.301,1.135,3.469,2.042,6.512,2.729c1.855,0.407,3.043,0.844,3.554,1.303
			c0.512,0.459,0.768,0.979,0.768,1.563c0,0.612-0.268,1.151-0.805,1.615c-0.537,0.467-1.3,0.697-2.291,0.697
			c-1.326,0-2.349-0.455-3.063-1.363c-0.438-0.562-0.729-1.379-0.871-2.449l-6.603,0.413c0.192,2.269,1.024,4.135,2.496,5.604
			c1.474,1.471,4.114,2.206,7.937,2.206c2.174,0,3.975-0.313,5.405-0.942c1.429-0.628,2.539-1.549,3.339-2.765
			c0.797-1.216,1.192-2.542,1.192-3.983c0-1.224-0.298-2.331-0.896-3.321c-0.6-0.99-1.555-1.818-2.863-2.487
			c-1.313-0.67-3.483-1.33-6.52-1.984c-1.227-0.255-2.002-0.529-2.326-0.826c-0.34-0.286-0.508-0.605-0.508-0.966
			c0-0.489,0.205-0.905,0.613-1.248c0.408-0.342,1.018-0.513,1.822-0.513c0.979,0,1.748,0.229,2.305,0.688
			c0.559,0.459,0.922,1.194,1.098,2.206l6.54-0.385c-0.286-2.327-1.185-4.024-2.688-5.092c-1.506-1.067-3.692-1.602-6.563-1.602
			C135.085,42.749,133.248,43.044,131.905,43.631"/>
	</g>
</g>
<g>
	<g>
		<polygon id="SVGID_15_" fill="#FFFFFF" points="167.496,43.133 160.227,51.617 160.227,43.133 153.289,43.133 153.289,65.585 
			160.227,65.585 160.227,60.106 163.811,56.351 168.544,65.585 177.089,65.585 168.528,51.607 176.721,43.133 		"/>
	</g>
</g>
<g>
	<g>
		<rect id="SVGID_17_" x="182.014" y="43.133" fill="#FFFFFF" width="6.951" height="22.453"/>
	</g>
</g>
<g>
	<path fill="#FFFFFF" d="M189.479,73.193h-84.565H89.566H4.998l9.944,9.709l-9.944,9.084h84.568h15.348h84.565l-9.942-9.71
		L189.479,73.193z M27.406,86.898h-3.517v-7.307h3.428c1.303,0,2.059,0.803,2.059,1.862c0,0.919-0.602,1.532-1.27,1.676
		c0.774,0.118,1.413,0.907,1.413,1.796C29.519,86.075,28.751,86.898,27.406,86.898z M38.111,84.028c0,1.818-1.02,3.003-3.065,3.003
		c-2.048,0-3.076-1.195-3.076-2.992v-4.445h1.105v4.411c0,1.25,0.689,2.05,1.971,2.05c1.28,0,1.959-0.8,1.959-2.05v-4.411h1.106
		V84.028z M45.224,86.898l-2.604-3.177l-0.69,0.777v2.398h-1.097v-7.306h1.097v3.622l3.056-3.622h1.355l-3.009,3.461l3.25,3.845
		L45.224,86.898L45.224,86.898z M51.508,87.029c-2.18,0-3.678-1.61-3.678-3.779c0.001-2.166,1.499-3.777,3.678-3.777
		c2.181,0,3.682,1.611,3.682,3.777C55.189,85.418,53.688,87.029,51.508,87.029z M64.152,86.898h-1.17l-1.523-5.642l-1.512,5.642
		h-1.17l-2.092-7.306h1.225l1.512,5.858l1.599-5.858h0.889l1.586,5.858l1.512-5.858h1.226L64.152,86.898z M69.351,86.898h-1.097
		v-7.306h1.097V86.898z M78.274,86.897h-1.063l-4.04-5.605v5.605h-1.094v-7.305h1.125l3.977,5.475v-5.475h1.095V86.897z
		 M86.2,86.897l-0.593-1.513h-3.579l-0.594,1.513h-1.203l2.902-7.305h1.368l2.9,7.305H86.2z M143.009,77.403h0.979l-1.829,1.578
		h-0.724L143.009,77.403z M98.427,80.556h-2.259v6.342h-1.091v-6.342h-2.269v-0.965h5.618V80.556z M105.147,86.897l-0.588-1.513
		h-3.582l-0.596,1.513H99.18l2.9-7.305h1.369l2.9,7.305H105.147z M112.735,80.556h-2.258v6.342h-1.094v-6.342h-2.268v-0.965h5.618
		L112.735,80.556L112.735,80.556z M119.171,86.898l-1.74-2.815h-1.368v2.815h-1.097v-7.307h3.076c1.392,0,2.342,0.898,2.342,2.243
		c0,1.316-0.885,2.02-1.816,2.138l1.874,2.926H119.171z M127.925,86.897h-5.405V86l3.917-5.443h-3.917v-0.964h5.331v0.897
		l-3.919,5.443h3.993V86.897z M135.556,86.897l-0.591-1.513h-3.582l-0.594,1.513h-1.203l2.902-7.305h1.369l2.899,7.305H135.556z
		 M144.927,86.898h-1.061l-4.039-5.606v5.606h-1.099v-7.307h1.127l3.978,5.477v-5.477h1.094V86.898L144.927,86.898z M150.071,87.031
		c-1.305,0-2.258-0.474-2.881-1.161l0.623-0.846c0.494,0.55,1.283,1.027,2.301,1.027c1.183,0,1.601-0.601,1.601-1.126
		c0-0.766-0.834-0.985-1.764-1.227c-1.175-0.309-2.531-0.646-2.531-2.137c0-1.203,1.063-2.081,2.586-2.081
		c1.129,0,2.015,0.359,2.66,1.02l-0.636,0.812c-0.557-0.591-1.323-0.854-2.112-0.854c-0.813,0-1.369,0.416-1.369,1.028
		c0,0.658,0.789,0.865,1.697,1.096c1.194,0.316,2.586,0.689,2.586,2.246C152.832,85.967,152.042,87.031,150.071,87.031z
		 M159.583,86.898l-2.605-3.177l-0.688,0.777v2.398h-1.097v-7.306h1.097v3.622l3.053-3.622h1.361l-3.013,3.461l3.25,3.845
		L159.583,86.898L159.583,86.898z M168.187,86.897l-0.587-1.513h-3.582l-0.598,1.513h-1.199l2.9-7.305h1.367l2.902,7.305H168.187z"
		/>
	<polygon fill="#FFFFFF" points="101.292,84.412 104.237,84.412 102.759,80.546 	"/>
	<polygon fill="#FFFFFF" points="82.345,84.412 85.288,84.412 83.812,80.546 	"/>
	<path fill="#FFFFFF" d="M119.257,81.836c0-0.763-0.567-1.279-1.357-1.279h-1.837v2.563h1.837
		C118.689,83.119,119.257,82.604,119.257,81.836z"/>
	<path fill="#FFFFFF" d="M27.108,82.692c0.732,0,1.139-0.461,1.139-1.063c0-0.601-0.405-1.072-1.139-1.072h-2.122v2.137
		L27.108,82.692L27.108,82.692z"/>
	<path fill="#FFFFFF" d="M27.163,83.656h-2.177v2.278h2.177c0.768,0,1.229-0.438,1.229-1.149
		C28.391,84.181,27.974,83.656,27.163,83.656z"/>
	<path fill="#FFFFFF" d="M51.508,80.446c-1.563,0-2.552,1.194-2.552,2.805c0,1.601,0.987,2.804,2.552,2.804
		c1.546,0,2.554-1.203,2.554-2.804C54.061,81.64,53.053,80.446,51.508,80.446z"/>
	<polygon fill="#FFFFFF" points="164.333,84.412 167.277,84.412 165.8,80.546 	"/>
	<polygon fill="#FFFFFF" points="131.703,84.412 134.645,84.412 133.167,80.546 	"/>
</g>
<g>
	<g>
		<path id="SVGID_19_" fill="#FFFFFF" d="M96.412,21.912c-0.485,0-0.918,0.301-1.073,0.749c-0.258,0.733-0.629,2.006-0.66,3.163
			l0.604-0.227c1.037-0.39,2.124-0.587,3.231-0.587h4.813l-0.431-2.312c-0.083-0.459-0.481-0.788-0.948-0.788L96.412,21.912
			L96.412,21.912z"/>
	</g>
</g>
<g>
	<g>
		<path id="SVGID_21_" fill="#FFFFFF" d="M102.98,10.018l0.032,0.858l-0.241,0.253c0.176,0.217,0.271,0.498,0.241,0.796
			c-0.053,0.468-0.405,0.77-0.825,0.888v3.493c0.004,1.436,0.006,2.863-1.029,3.976l-0.072,0.065h0.861
			c1.221,0,2.266,0.868,2.487,2.067l0.498,2.671c0.392,0.08,0.757,0.261,1.003,0.584l0.588,0.793l-0.021,0.015
			c0.023,0.031,0.063,0.05,0.08,0.087c0.6,1.134,0.145,2.574-1.015,3.213c-0.114,0.063-0.245,0.099-0.378,0.099h-9.566
			c-0.116,0-0.229-0.025-0.334-0.075s-0.925-0.479-1.409-1.167c-0.054-0.067-0.104-0.141-0.149-0.214
			c-0.016-0.024-0.036-0.044-0.05-0.068c-0.003-0.009,0.004-0.017-0.001-0.023c-0.815-1.349-0.775-3.458,0.182-6.182
			c0.373-1.075,1.397-1.798,2.549-1.798h2.36l1.288-1.178c0.567-0.613,0.563-1.573,0.563-2.687v-3.61l-0.277,0.223l-0.629,0.02
			c-0.07-0.01-0.131-0.046-0.197-0.064L75.963,33.689h79.294L112.762,8.476l-3.607,2.309l11.33,10.021L104.856,8.376L102.98,10.018z
			"/>
	</g>
</g>
<g>
	<g>
		<path id="SVGID_23_" fill="#FFFFFF" d="M76.801,22.727l12.894-11.525L84.28,8.299L44.538,33.689h28.829L98.54,11.632
			c0.025-0.341,0.186-0.656,0.459-0.878l1.934-1.52c0.185-0.146,0.398-0.211,0.621-0.239l1.939-1.702l-3.596-2.858L76.801,22.727z"
			/>
	</g>
</g>
</svg>
